<svg xmlns="http://www.w3.org/2000/svg" viewBox="0 0 420 420" role="img" aria-labelledby="title">
<title id="title">really bad blackjack cards doodle</title>
<rect width="420" height="420" fill="#fff"/>
<g fill="#fff" stroke="#111" stroke-width="7" stroke-linecap="round" stroke-linejoin="round">
  <g transform="rotate(-12 150 195)">
    <rect x="86" y="90" width="140" height="220" rx="10"/>
    <text x="101" y="126" font-family="Arial, sans-serif" font-size="38" fill="#111" stroke="none">10♠</text>
  </g>
  <g transform="rotate(-1 210 184)">
    <rect x="145" y="66" width="142" height="230" rx="10"/>
    <text x="160" y="104" font-family="Arial, sans-serif" font-size="42" fill="#111" stroke="none">J♠</text>
  </g>
  <g transform="rotate(10 264 193)">
    <rect x="195" y="86" width="144" height="228" rx="10"/>
    <text x="209" y="125" font-family="Arial, sans-serif" font-size="44" fill="#111" stroke="none">A♠</text>
    <text x="235" y="225" font-family="Arial, sans-serif" font-size="95" fill="#111" stroke="none">♠</text>
  </g>
  <ellipse cx="126" cy="319" rx="68" ry="22"/>
  <path d="M58 319 L58 347 Q124 375 194 347 L194 319"/>
  <ellipse cx="126" cy="339" rx="68" ry="22"/>
  <ellipse cx="286" cy="330" rx="56" ry="23" transform="rotate(-10 286 330)"/>
</g>
<g fill="none" stroke="#111" stroke-width="4" stroke-linecap="round">
  <path d="M78 310 l10 15 M101 298 l9 28 M144 296 l-5 31 M171 306 l-13 23 M251 320 l10 24 M280 307 l6 27 M310 311 l-3 26"/>
</g>
</svg>
