<svg xmlns="http://www.w3.org/2000/svg" viewBox="0 0 420 420" role="img" aria-labelledby="title">
<title id="title">really bad chips doodle</title>
<rect width="420" height="420" fill="#fff"/>
<g fill="#fff" stroke="#111" stroke-width="7" stroke-linecap="round" stroke-linejoin="round">
  <ellipse cx="176" cy="125" rx="82" ry="29"/>
  <path d="M94 125 L94 223 Q177 270 259 223 L259 125"/>
  <ellipse cx="176" cy="158" rx="82" ry="29"/>
  <ellipse cx="176" cy="191" rx="82" ry="29"/>
  <ellipse cx="176" cy="223" rx="82" ry="29"/>
  <ellipse cx="96" cy="282" rx="67" ry="28" transform="rotate(-8 96 282)"/>
  <ellipse cx="302" cy="262" rx="67" ry="28" transform="rotate(11 302 262)"/>
  <ellipse cx="254" cy="329" rx="67" ry="28" transform="rotate(-5 254 329)"/>
</g>
<g fill="none" stroke="#111" stroke-width="4" stroke-linecap="round">
  <path d="M111 111 l13 29 M150 100 l5 34 M198 98 l-6 37 M233 110 l-16 30"/>
  <path d="M42 271 l16 26 M74 258 l7 33 M113 254 l-2 32 M144 264 l-12 27"/>
  <path d="M250 247 l14 28 M283 238 l5 34 M320 242 l-4 33 M347 257 l-14 25"/>
  <path d="M202 315 l16 29 M240 304 l6 35 M277 305 l-4 34 M309 317 l-14 26"/>
</g>
</svg>
