<svg xmlns="http://www.w3.org/2000/svg" viewBox="0 0 420 420" role="img" aria-labelledby="title">
<title id="title">Doodled racing horse</title>
<g fill="white" stroke="#111" stroke-width="7" stroke-linecap="round" stroke-linejoin="round">
  <path d="M103 229 Q124 165 206 170 Q248 171 276 142 Q298 117 327 127 Q357 138 365 169 Q371 194 352 207 Q336 218 314 207 L291 193 Q278 215 263 236 L296 265 Q312 280 302 294 Q292 308 277 296 L235 265 Q214 275 188 276 L154 318 Q142 332 128 321 Q117 312 128 295 L151 261 Q129 249 118 244 L81 276 Q66 289 53 277 Q42 265 58 250 Z"/>
  <path d="M283 145 Q282 116 295 88 L310 124 Q323 103 341 93 L336 132"/>
  <path d="M279 142 Q260 112 237 103 Q252 128 257 154 M246 116 Q221 102 201 108 Q225 124 238 145"/>
  <path d="M104 225 Q71 203 48 205 Q70 219 88 232 Q57 230 36 241 Q70 246 104 238"/>
  <path d="M194 170 L221 146 L260 154 L246 205 L201 205 Z"/>
  <path d="M221 205 L214 250"/>
  <path d="M306 150 Q326 158 347 160 M303 177 Q328 187 351 179"/>
  <circle cx="331" cy="151" r="5" fill="#111"/>
  <path d="M344 190 q8 5 14 0"/>
</g>
<g fill="none" stroke="#111" stroke-width="4" stroke-linecap="round"><path d="M80 291 l-12 17 M123 315 l-10 17 M287 294 l10 18 M299 279 l13 14 M113 216 q38 12 62 44 M241 219 q14 10 21 25"/></g>
</svg>
