<svg xmlns="http://www.w3.org/2000/svg" viewBox="0 0 420 420" role="img" aria-labelledby="title">
<title id="title">really bad roulette wheel doodle</title>
<rect width="420" height="420" fill="#fff"/>
<g fill="none" stroke="#111" stroke-width="8" stroke-linecap="round" stroke-linejoin="round">
  <ellipse cx="210" cy="220" rx="165" ry="122"/>
  <ellipse cx="210" cy="210" rx="145" ry="102"/>
  <ellipse cx="210" cy="210" rx="102" ry="73"/>
  <circle cx="210" cy="210" r="25"/>
  <path d="M210 100 L210 320 M84 210 L336 210 M110 138 L309 282 M111 281 L309 138" opacity=".45"/>
  <path d="M210 182 L229 150 L243 172 M238 210 L269 192 L274 217 M210 237 L226 264 L198 266 M183 210 L152 226 L146 193"/>
  <circle cx="210" cy="123" r="10"/><circle cx="210" cy="297" r="10"/><circle cx="123" cy="210" r="10"/><circle cx="297" cy="210" r="10"/>
  <path d="M70 313 q48 29 120 34 M239 349 q74 -7 113 -41"/>
</g>
<g fill="#111">
  <path d="M106 135 l20 -20 l19 16 l-21 18 z"/>
  <path d="M170 104 l36 -5 l0 24 l-28 2 z"/>
  <path d="M256 107 l35 16 l-16 22 l-27 -15 z"/>
  <path d="M310 169 l14 33 l-24 2 l-9 -26 z"/>
  <path d="M308 245 l-20 28 l-18 -16 l16 -23 z"/>
  <path d="M240 291 l-34 5 l-2 -24 l30 -4 z"/>
  <path d="M152 283 l-29 -18 l16 -20 l24 14 z"/>
  <path d="M99 227 l0 -33 l24 6 l0 21 z"/>
</g>
</svg>
