<svg xmlns="http://www.w3.org/2000/svg" viewBox="0 0 420 420" role="img" aria-labelledby="title">
<title id="title">really bad slot machine doodle</title>
<rect width="420" height="420" fill="#fff"/>
<g fill="none" stroke="#111" stroke-width="8" stroke-linecap="round" stroke-linejoin="round">
  <path d="M101 79 C143 45 286 45 323 88 L318 347 C317 366 302 374 286 374 L129 375 C110 375 99 364 99 346 Z"/>
  <path d="M124 128 L298 123 L297 248 L124 248 Z"/>
  <path d="M181 123 L182 248 M238 123 L239 248"/>
  <path d="M116 275 L304 275 L293 334 L125 335 Z"/>
  <path d="M326 163 L356 120 L358 212"/>
  <circle cx="360" cy="108" r="17"/>
  <circle cx="152" cy="295" r="11"/><circle cx="211" cy="294" r="11"/><circle cx="268" cy="295" r="11"/>
  <path d="M150 174 q5-18 20-8 q9 10 -2 25 q-11 10 -18 -3 q-6 -10 0 -14"/>
  <text x="198" y="206" font-family="Arial, sans-serif" font-size="62" fill="#111" stroke="none">7</text>
  <text x="249" y="193" font-family="Arial, sans-serif" font-size="22" fill="#111" stroke="none">BAR</text>
  <path d="M197 83 l16 -18 l8 18 l19 5 l-18 11 l4 17 l-18 -10 l-15 10 l3 -18 l-17 -10 z"/>
  <path d="M333 80 l-11 -12 M357 66 l0 -14 M381 79 l12 -12"/>
  <path d="M115 352 l18 8 M286 351 l18 6"/>
</g>
</svg>
