<svg xmlns="http://www.w3.org/2000/svg" viewBox="0 0 420 420" role="img" aria-labelledby="title">
<title id="title">Doodled slot machine</title>
<g fill="white" stroke="#111" stroke-width="7" stroke-linecap="round" stroke-linejoin="round">
  <path d="M94 112 Q100 57 210 49 Q320 57 326 112 L326 343 Q326 371 300 371 L120 371 Q94 371 94 343 Z"/>
  <path d="M113 91 Q142 64 210 63 Q278 64 307 91 L307 119 L113 119 Z"/>
  <path d="M118 141 L302 141 L302 257 L118 257 Z"/>
  <path d="M179 141 L179 257 M241 141 L241 257"/>
  <path d="M112 279 L307 279 L300 333 L121 333 Z"/>
  <path d="M143 310 L276 310 L268 339 L151 339 Z"/>
  <circle cx="151" cy="292" r="10"/><circle cx="210" cy="292" r="10"/><circle cx="269" cy="292" r="10"/>
  <path d="M335 151 L365 107"/><circle cx="370" cy="97" r="17"/><path d="M334 151 Q350 164 347 185"/>
  <path d="M189 86 L201 86 L210 66 L219 86 L240 89 L224 102 L228 119 L210 110 L192 119 L196 102 Z"/>
</g>
<g fill="none" stroke="#111" stroke-width="5" stroke-linecap="round" stroke-linejoin="round">
  <path d="M137 189 q15-16 28 0 q-4 20-14 20 q-10 0-14-20 M151 173 q7-11 17-4"/>
  <text x="193" y="219" font-family="Arial Black, sans-serif" font-size="65" fill="#111" stroke="none">7</text>
  <rect x="252" y="174" width="40" height="29" rx="3"/>
  <text x="258" y="195" font-family="Arial Black, sans-serif" font-size="17" fill="#111" stroke="none">BAR</text>
  <path d="M103 129 l14-6 M312 129 l-14-6 M117 354 l12 6 M301 354 l-12 6"/>
  <path d="M345 82 l-12-14 M372 68 l1-18 M397 80 l14-13"/>
</g>
</svg>
